<?xml version="1.0" encoding="UTF-8" standalone="no"?>
<svg
   xmlns:dc="http://purl.org/dc/elements/1.1/"
   xmlns:cc="http://creativecommons.org/ns#"
   xmlns:rdf="http://www.w3.org/1999/02/22-rdf-syntax-ns#"
   xmlns:svg="http://www.w3.org/2000/svg"
   xmlns="http://www.w3.org/2000/svg"
   viewBox="0 0 93.333336 93.333336"
   height="93.333336"
   width="93.333336"
   xml:space="preserve"
   id="svg2"
   version="1.1"><metadata
     id="metadata8"><rdf:RDF><cc:Work
         rdf:about=""><dc:format>image/svg+xml</dc:format><dc:type
           rdf:resource="http://purl.org/dc/dcmitype/StillImage" /></cc:Work></rdf:RDF></metadata><defs
     id="defs6"><clipPath
       id="clipPath18"
       clipPathUnits="userSpaceOnUse"><path
         id="path16"
         d="M 0,70 H 70 V 0 H 0 Z" /></clipPath></defs><g
     transform="matrix(1.3333333,0,0,-1.3333333,0,93.333333)"
     id="g10"><g
       id="g12"><g
         clip-path="url(#clipPath18)"
         id="g14"><g
           transform="translate(34.958,1.6133)"
           id="g20"><path
             id="path22"
             style="fill:#3a3a3a;fill-opacity:1;fill-rule:nonzero;stroke:none"
             d="m 0,0 c -1.256,0 -2.438,0.489 -3.326,1.377 l -28.685,28.685 c -1.833,1.834 -1.833,4.818 0,6.651 l 28.685,28.685 c 0.888,0.889 2.07,1.378 3.326,1.378 v 0 c 1.256,0 2.437,-0.489 3.325,-1.378 L 32.011,36.713 c 1.833,-1.833 1.833,-4.817 0,-6.651 L 3.325,1.377 C 2.437,0.489 1.256,0 0,0" /></g><g
           transform="translate(34.958,68.8892)"
           id="g24"><path
             id="path26"
             style="fill:#545c56;fill-opacity:1;fill-rule:nonzero;stroke:none"
             d="m 0,0 c -1.332,0 -2.663,-0.508 -3.679,-1.524 l -28.685,-28.685 c -2.032,-2.032 -2.032,-5.327 0,-7.358 l 28.685,-28.685 c 1.016,-1.016 2.347,-1.524 3.679,-1.524 1.331,0 2.663,0.508 3.679,1.524 l 28.685,28.685 c 2.032,2.031 2.032,5.326 0,7.358 L 3.679,-1.524 C 2.663,-0.508 1.331,0 0,0 m 0,-1 c 1.122,0 2.178,-0.437 2.972,-1.231 l 28.685,-28.685 c 1.639,-1.639 1.639,-4.305 0,-5.944 L 2.972,-65.545 C 2.178,-66.339 1.122,-66.776 0,-66.776 c -1.123,0 -2.178,0.437 -2.972,1.231 l -28.685,28.685 c -1.639,1.639 -1.639,4.305 0,5.944 L -2.972,-2.231 C -2.178,-1.437 -1.123,-1 0,-1" /></g><g
           transform="translate(48.0664,44.832)"
           id="g28"><path
             id="path30"
             style="fill:#ffffff;fill-opacity:1;fill-rule:nonzero;stroke:none"
             d="m 0,0 c -0.947,-1.208 -1.942,-3.211 -2.984,-6.01 l -0.083,-0.206 -0.453,0.391 0.062,0.186 c 1.016,2.84 1.996,4.816 2.943,5.927 l 0.103,0.124 z m -5.495,-3.211 c -1.058,0.686 -2.292,1.029 -3.705,1.029 -0.316,0 -0.646,-0.02 -1.028,-0.061 v -20.685 l 3.395,-3.904 H -17.35 l -0.474,0.603 h 9.859 l -2.864,3.137 v 21.446 l 1.217,0.02 c 1.331,0 2.275,-0.106 2.831,-0.319 0.555,-0.213 0.984,-0.635 1.286,-1.266 m 4.071,4.379 c -0.12,-0.228 -0.2,-0.381 -0.24,-0.461 l -1.365,-2.409 c -0.469,-0.857 -0.904,-1.927 -1.305,-3.212 l -0.04,-0.1 -0.2,0.14 -0.061,0.261 c -0.388,1.526 -0.94,2.583 -1.655,3.172 -0.717,0.588 -1.811,0.883 -3.282,0.883 -0.603,0 -1.204,-0.027 -1.807,-0.081 h -0.353 v -22.432 l 2.499,-2.255 h -9.68 l 2.965,2.421 v 20.761 l -1.409,0.02 c -1.363,0 -2.333,-0.268 -2.909,-0.804 -0.575,-0.536 -0.916,-1.479 -1.022,-2.829 h -0.585 c 0.148,1.573 0.555,2.669 1.22,3.288 0.666,0.618 1.765,0.927 3.298,0.927 l 1.281,-0.301 h 0.126 v 1.024 c -0.703,0.083 -1.373,0.124 -2.008,0.124 -1.78,0 -3.063,-0.362 -3.85,-1.087 -0.786,-0.724 -1.221,-1.949 -1.303,-3.674 h -0.249 c -0.594,1.918 -1.511,4.057 -2.753,6.417 l -0.124,0.207 z" /></g></g></g></g></svg>